# xmcd
#
# Track frame offsets:
#	150
#	17363
#	28711
#	41366
#	55063
#	62735
#	80373
#	96685
#	113150
#	122176
#	138273
#	151834
#	167454
#	176951
#	194928
#	213143
#	231489
#	246755
#	262216
#
# Disc length: 3726 seconds
#
# Revision: 0
# Processed by: cddbd v1.4PL0 Copyright (c) Steve Scherf et al.
# Submitted via: EasyCDDAExtractor 4.6.0.1
#
DISCID=0e0e8c13
DTITLE=Fleetwood Mac - Show-Biz Blues - Fleetwood Mac 1968 to 1970 - Volume 2 
DTITLE=Disc 1
DYEAR=1900
DGENRE=
TTITLE0=Soul Dressing (Instrumental)
TTITLE1=If You Want To Be Happy
TTITLE2=Outrage (Instrumental)
TTITLE3=The Sun Is Shining
TTITLE4=Don't Be Cruel
TTITLE5=I'm So Lonely And Blue
TTITLE6=How Blue Can You Get?
TTITLE7=My Baby's Sweeter
TTITLE8=Long Grey Mare
TTITLE9=Buzz Me Baby
TTITLE10=Mind Of My Own
TTITLE11=I Have To Laugh
TTITLE12=You're The One
TTITLE13=Do You Give A Damn For Me
TTITLE14=Him And Me
TTITLE15=Show-Biz Blues
TTITLE16=Fast Talkin' Woman Blues
TTITLE17=World In Harmony
TTITLE18=Leaving Town Blues
EXTD=
EXTT0=
EXTT1=
EXTT2=
EXTT3=
EXTT4=
EXTT5=
EXTT6=
EXTT7=
EXTT8=
EXTT9=
EXTT10=
EXTT11=
EXTT12=
EXTT13=
EXTT14=
EXTT15=
EXTT16=
EXTT17=
EXTT18=
PLAYORDER=
